# xmcd CD database file
# Generated: lun nov 17 14:42:43 2003 by KSCD
# 
# Track frame offsets:
#       150
#       15559
#       36808
#       52085
#       66779
#       79813
#       96534
#       110076
#       128925
#       143832
#       158112
#       173587
#
# Disc length: 2548 seconds
#
# Revision: 1
# Processed by: cddbd v1.4PL0 Copyright (c) Steve Scherf et al.
# Submitted via: Kscd 1.3.3
#
DISCID=a409f20c
DTITLE=Contigo porque me matas - El hombre gancho
DYEAR=1900
DGENRE=
TTITLE0=El embustero
TTITLE1=Esperar y esperar
TTITLE2=Calle Pena
TTITLE3=Tu recuerdo peor
TTITLE4=Mi tren
TTITLE5=El hechicero
TTITLE6=El amo de la baranda
TTITLE7=Prohibida
TTITLE8=La flecha envenenada
TTITLE9=Soledad
TTITLE10=El contragolpe
TTITLE11=Dispara
EXTD=
EXTT0=
EXTT1=
EXTT2=
EXTT3=
EXTT4=
EXTT5=
EXTT6=
EXTT7=
EXTT8=
EXTT9=
EXTT10=
EXTT11=
PLAYORDER=
